<svg width="120" height="120" viewBox="0 0 120 120" fill="none" xmlns="http://www.w3.org/2000/svg">
<rect width="120" height="120" rx="15" fill="#1C1C1C"/>
<path d="M46.096 29.52H64.336L88.432 90H71.056L66.544 78.288H42.928L38.416 90H22L46.096 29.52ZM54.544 48.24L47.632 66.096H61.84L54.928 48.24H54.544Z" fill="#BED4FF"/>
<path d="M56.096 29.52H74.336L98.432 90H81.056L76.544 78.288H52.928L48.416 90H32L56.096 29.52ZM64.544 48.24L57.632 66.096H71.84L64.928 48.24H64.544Z" fill="#FFBEBE"/>
<path d="M51.096 29.52H69.336L93.432 90H76.056L71.544 78.288H47.928L43.416 90H27L51.096 29.52ZM59.544 48.24L52.632 66.096H66.84L59.928 48.24H59.544Z" fill="white"/>
</svg>
