<svg width="77" height="61" viewBox="0 0 77 61" fill="none" xmlns="http://www.w3.org/2000/svg">
<path d="M24.096 0.519995H42.336L66.432 61H49.056L44.544 49.288H20.928L16.416 61H0L24.096 0.519995ZM32.544 19.24L25.632 37.096H39.84L32.928 19.24H32.544Z" fill="#BED4FF"/>
<path d="M34.096 0.519995H52.336L76.432 61H59.056L54.544 49.288H30.928L26.416 61H10L34.096 0.519995ZM42.544 19.24L35.632 37.096H49.84L42.928 19.24H42.544Z" fill="#FFBEBE"/>
<path d="M29.096 0.519995H47.336L71.432 61H54.056L49.544 49.288H25.928L21.416 61H5L29.096 0.519995ZM37.544 19.24L30.632 37.096H44.84L37.928 19.24H37.544Z" fill="white"/>
</svg>
